<?xml version="1.0" encoding="UTF-8" standalone="no"?>
<!-- Created with Inkscape (http://www.inkscape.org/) -->

<svg
   width="60.283127mm"
   height="69.374023mm"
   viewBox="0 0 60.283127 69.374023"
   version="1.1"
   id="svg5"
   inkscape:version="1.2.2 (b0a8486, 2022-12-01)"
   sodipodi:docname="cactus.svg"
   xmlns:inkscape="http://www.inkscape.org/namespaces/inkscape"
   xmlns:sodipodi="http://sodipodi.sourceforge.net/DTD/sodipodi-0.dtd"
   xmlns="http://www.w3.org/2000/svg"
   xmlns:svg="http://www.w3.org/2000/svg">
  <sodipodi:namedview
     id="namedview7"
     pagecolor="#ffffff"
     bordercolor="#000000"
     borderopacity="0.25"
     inkscape:showpageshadow="2"
     inkscape:pageopacity="0.0"
     inkscape:pagecheckerboard="0"
     inkscape:deskcolor="#d1d1d1"
     inkscape:document-units="mm"
     showgrid="false"
     inkscape:zoom="0.64613693"
     inkscape:cx="246.07787"
     inkscape:cy="571.08638"
     inkscape:window-width="1280"
     inkscape:window-height="568"
     inkscape:window-x="0"
     inkscape:window-y="25"
     inkscape:window-maximized="0"
     inkscape:current-layer="layer1" />
  <defs
     id="defs2" />
  <g
     inkscape:label="Layer 1"
     inkscape:groupmode="layer"
     id="layer1"
     transform="translate(-80.047075,-108.74658)">
    <path
       id="path265"
       style="fill:#66cc4e;fill-opacity:1;stroke:#000000;stroke-width:0.79375;stroke-dasharray:none;stroke-opacity:1"
       d="m 111.24024,109.14373 c -0.38834,0.003 -0.77653,0.0277 -1.16169,0.0723 -1.54061,0.17855 -3.03382,0.67189 -4.43125,1.34462 -3.71152,1.78674 -6.744008,4.8365 -8.825303,8.39122 -2.081295,3.55472 -3.245253,7.5984 -3.736723,11.68818 -0.556045,4.62714 -0.272587,9.27132 0.305925,13.90664 -0.153196,-0.12813 -0.299766,-0.26406 -0.438216,-0.40824 -1.153426,-1.20119 -1.724276,-2.85421 -1.99161,-4.49792 -0.267334,-1.64371 -0.263783,-3.31906 -0.445968,-4.97437 -0.182185,-1.65531 -0.571094,-3.33683 -1.525488,-4.70152 -0.477197,-0.68235 -1.093651,-1.27443 -1.823145,-1.67587 -0.729493,-0.40144 -1.574372,-0.60654 -2.40347,-0.52968 -1.027048,0.0952 -1.990769,0.62232 -2.696993,1.37407 -0.706225,0.75176 -1.164654,1.71602 -1.397848,2.72077 -0.46463,2.00192 -0.06218,4.08807 0,6.14226 0.03718,1.22804 -0.04841,2.45791 0,3.68556 0.09274,2.35179 0.691448,4.69957 1.869653,6.73706 1.178206,2.03748 2.950184,3.75191 5.091679,4.72839 2.22404,1.01412 4.745992,1.18743 7.164421,0.74621 0.06872,0.43366 0.139156,0.86805 0.206189,1.30121 0.274563,1.7742 0.531529,3.55105 0.819071,5.32319 0.918122,5.65844 2.149277,11.26641 3.685563,16.78916 l 14.741223,0.40927 c 1.84945,-4.4796 3.22453,-9.15455 4.09484,-13.92214 0.83966,-4.59972 1.20489,-9.25386 1.4335,-13.92525 2.25821,0.0773 4.52379,-0.0574 6.75618,-0.4067 2.81945,-0.44113 5.62866,-1.2406 8.03413,-2.77605 2.40548,-1.53546 4.38356,-3.87239 5.06946,-6.64249 0.62992,-2.54402 0.14694,-5.21874 -0.40928,-7.77989 -0.54164,-2.49406 -1.15327,-4.98017 -2.04742,-7.37061 -0.53555,-1.43177 -1.20099,-2.86763 -2.32647,-3.90209 -0.56274,-0.51722 -1.23669,-0.92287 -1.97507,-1.12034 -0.73838,-0.19747 -1.54226,-0.17883 -2.25051,0.10852 -0.7724,0.31338 -1.39799,0.93088 -1.81591,1.6521 -0.41792,0.72121 -0.64026,1.54235 -0.75241,2.36833 -0.22431,1.65194 -0.0253,3.3437 -0.29817,4.98832 -0.4639,2.79613 -2.37079,5.31237 -4.93717,6.51537 -0.77862,0.36498 -1.61124,0.60484 -2.46186,0.72347 0.10998,-1.87057 0.24663,-3.73866 0.43769,-5.60121 0.40028,-3.90208 1.02512,-7.85308 0.37724,-11.72177 -0.32393,-1.93434 -0.97404,-3.83199 -2.06137,-5.46426 -1.08734,-1.63227 -2.62934,-2.98882 -4.45813,-3.69745 -1.08461,-0.42028 -2.25028,-0.60688 -3.41529,-0.59841 z"
       inkscape:export-filename="../images/cactus.svg"
       inkscape:export-xdpi="96"
       inkscape:export-ydpi="96" />
  </g>
</svg>
